<?xml version="1.0" encoding="utf-8"?>
<!-- Generator: Adobe Illustrator 28.0.0, SVG Export Plug-In . SVG Version: 6.00 Build 0)  -->
<svg version="1.1" id="Capa_1" xmlns="http://www.w3.org/2000/svg" xmlns:xlink="http://www.w3.org/1999/xlink" x="0px" y="0px"
	 viewBox="0 0 8305.53 1656.11" style="enable-background:new 0 0 8305.53 1656.11;" xml:space="preserve">
<g>
	<path d="M875.06,589.57c82.1-39.82,136.07-66,205.44-99.65c0.43,1.93,0.86,3.85,1.28,5.76c6.38-4.32,12.56-8.92,18.46-13.93
		c4.88-4.15,11.98,2.9,7.07,7.07c-7.39,6.28-15.16,11.97-23.21,17.23c12.56,56.35,23.42,105.07,40.67,182.45
		c-0.11-0.04-0.22-0.09-0.33-0.13c0.89,3.98,1.76,7.95,2.63,11.93c2.66,10.42,5.07,20.89,7.01,31.53c0.79,4.35,1.56,8.7,2.34,13.06
		c1.77,8.77,3.5,17.55,5.2,26.34c1.9,9.83,3.75,19.67,5.56,29.52c1.96,0.51,3.66,2.05,3.79,4.63c1.57,32.16,9.98,63.27,18.83,94.11
		c2.86,5.69,5.16,11.27,6.75,16.52c41.1,136.13,66.34,275.53,106.7,411.84c9.83,33.2,40.2,88.38,83.45,88.65
		c15.48-0.05,66.15-40.66,81.28-84.27c41.76-120.41,64.29-245.86,100.24-389.8c6.52-26.38,54.16-186.23,72.11-254.01
		c24.04-90.81,56.41-177.8,83.54-267.02c28.57-120.61,34.14-28.43,44.83,3.69c39.17,148.56,119.69,488.18,164.42,657.86
		c14.58,75.13,44.95,191.25,52.83,213.58c8.25,23.39,24.76,55.03,28.03,75.33c9.13,56.71-130.23,74.05-199.37,110.31
		c-102.12,53.57-203.59,107.99-298.82,173.91c210.92-83.03,421.85-166.06,632.82-249.11l223.27-2.77
		c507.41,13.85,83.52,2.36,0.02-62.3c-113.33-100.06-34.42-379.54,174.52-430.47c-35.57-11.63-71.67-23.42-105.29-34.41
		c8.62-112.08,50.8-188.27,196.98-184.94c78.31,137.52,77.46,147.62-29.58,220.01c139.81,6.1,158.01,91.8,167.7,170.58
		c8.81,71.71-7.59,145.54-13.7,229.72h380.24c-53.23,49.55-85,79.11-121.89,113.45h269.74c-25.23-89.53-58.57-173.27-70.28-259.03
		c-11.95-87.54-2.64-177.07-2.64-265.72c-16.84-0.1-33.69-0.21-50.53-0.31c-8.86,108.78-17.73,217.56-28.58,350.73
		c-181.17-101.31-153.33-248.11-207.4-360.39c136.46-50.26,258.01-95.02,390.6-143.85c20.81,29.25,48.31,62.77,69.65,98.8
		c89.22,150.63,170.71,304.66,267.48,451.84c39.57,60.18,110.74,106.12,167.53,158.53c14.01-6.02,28.02-12.05,42.03-18.07
		c0-39.54-9.39-81.28,3.1-117.9c9.28-27.22,44.08-65.05,72.43-68.25c101.04-11.42,204.2-13.11,306.54-12.95
		c304.88,0.45,484.53-116.09,532.55-367.08c20.45-106.9,10.4-218.2,8.72-327.44c-0.69-44.78-15.88-89.4-24.48-134.09
		c14.85-3.42,29.71-6.84,44.56-10.26c21.18,54.75,57.34,108.86,60.79,164.37c11.06,177.79,12.55,356.09,12.76,534.2
		c0.14,125.47,37.76,265.95-170.24,326.65c235.65,7.49,458.26,11.77,680.23,3.83c43.54-1.56,121.36-51.29,120.39-77.19
		c-3.89-104.2,67.57-86.21,145.1-82.78c84.08,3.72,168.76-1.89,246.48-3.32c-48.59-64.08-103.42-106.49-112.47-154.78
		c-16.94-90.48-11.89-184.56-6.3-276.74c1.89-31.18,33.05-61.14,50.83-91.66c42.09,24.8,104.61,42.19,122.41,75.81
		c51.27,96.86,91.37,198.83,122.97,301.52c34.91,113.41,119.86,163.23,254.34,173.8c100.53,7.9,122.17,48.44,71.51,121.75
		c-15.34,22.2-34.48,42.59-65.2,80.05c237.79,0,454.05,1.27,670.21-1.93c22.07-0.33,59.6-25.44,62.74-42.49
		c21.93-119.04,119.46-108.54,222.16-96.96c29.81,3.36,61-1.69,69.33-2.01V811.75c13.72-5.51,27.44-11.02,41.16-16.53
		c41.98,39.62,100.05,73.78,122.9,119.9c67.38,135.99,115.27,278.62,183.21,414.38c19.31,38.59,77.01,82.55,124.22,89.15
		c98.26,13.74,201.27,4.15,285.16,4.15c-76.67-74.69-159.65-141.22-221.09-219.38c-61.83-78.64-102.24-168.84-169.33-283.54
		c214.37,31.31,393.28,57.44,589.33,86.07c-25.26-60.54-38.13-91.37-48.74-116.8c-184.58-27.57-362.25-54.11-554.18-82.79
		c29.83-27.11,49.99-40.14,61.91-57.13c79.04-112.68,103.63-232.14,39.48-354.01c-57.88-109.98-177.97-133.14-309.36-134.85
		c-153.06-1.99-306.1-8.89-459.11-8.07c-92.77,0.49-185.45,11.56-278.17,17.87c0.58,9.79,1.16,19.59,1.74,29.38
		c76.6,4.03,153.47,13.44,229.74,10.85c120.45-4.09,157.76,41.89,158.58,136.73c1.18,136,23.7,271.86,25.74,407.89
		c1.8,120.05-11.98,240.25-18.88,360.39c-10.57-0.82-21.13-1.64-31.7-2.45c-4.88-33.63-9.76-67.25-14.64-100.88
		c-43.77,47.42-59.63,95.91-78.16,143.67c-61.7,159-128.13,194.08-325.5,186.93c-75.63-2.74-102.06-27.6-100.56-87.59
		c2.56-102.79,3.48-205.78-1.55-308.46c-3.79-77.53,46.56-108.5,120.09-79.92c80.46,31.28,147.14,86.88,223.08,133.89V767.27
		c-45.36,51.37-67.28,100.77-108.13,116.54c-56.98,22-128.42,24.64-192.96,22.27c-15.51-0.57-38.33-53.02-40.3-82.41
		c-5.71-85.46-8.11-171.69,0.23-256.81c2.83-28.87,35.24-72.4,65.01-80c152.21-38.86,249.26,2.49,321.78,123.6
		c11.48,19.17,29.23,35.77,44.08,53.55c23.17-46.92,18.64-89.75,24.13-131.7c10.72-81.96-31.86-107.19-127.75-105.94
		c-177.77,2.33-355.75-7.74-533.54-5.82c-75.86,0.82-116.24-10.78-144.62-77.87c-64.32-152.01-264.9-220.88-453.83-156.31
		c39.12,14.24,66.42,26.13,95.24,34.36c190.79,54.49,273.11,291.97,131.7,413.5c-43.18,37.11-131.52,44.72-200.71,49.02
		c-13.85,0.86-46.85-74.03-49.85-115.06c-8.01-109.34,0.09-219.52-8.76-328.78c-2.21-27.25-44.23-74.63-68.08-74.69
		c-147.24-0.33-294.52,10.23-441.79,17.17c0.12,8.32,0.24,16.64,0.36,24.96c47.87,4.29,95.69,9.09,143.63,12.77
		c176.59,13.55,192.15,23,193.28,166.01c1.79,226.19-1.22,452.43-6.25,678.59c-0.87,39.05-21.78,77.8-33.43,116.69
		c-8.2-1.91-16.4-3.81-24.59-5.72c-9.08-35.08-18.15-70.16-27.23-105.24c-42.56,42.93-54.27,85.21-69.87,126.49
		c-57.9,153.24-126.65,188.86-318.65,177.24c-68.56-4.15-94.77-26.61-93.43-82.62c2.36-99.36-4.73-198.99,1.36-298.11
		c2.15-35,22.76-91.21,49.96-98.32c47.57-12.43,113.72-5.5,159.11,14.02c46.34,19.93,77.06,64.77,127.76,110.57V710.55
		c-36.46,38.63-50.48,68.65-74.81,76.38c-68.73,21.84-141.4,43.14-213.18,44.79c-18,0.41-50.92-72.97-55.16-113.98
		c-7.72-74.69-7.16-151.57,6.67-225.39c5.5-29.38,50.94-70.1,85.92-76.44c170.93-30.96,236.61,3.78,303.31,142.6
		c8.22,17.11,21.06,32.7,50.88,78.11c13.04-83.45,22.05-135.62,29.17-187.96c9.61-70.68-13.08-104.35-115.24-101.02
		c-194.04,6.34-388.9-0.5-583.2-6.48c-40.87-1.26-91.11-13.41-119.57-35.78c-189.78-149.18-640.05-219.39-885.54-133.27
		c137.74,84.06,137.74,84.06,136.52,169.97h-359.54c203.81,121,203.13,121.02,208.8,309.71c1.43,47.47,8.72,94.81,13.32,142.22
		c13.94-0.35,27.88-0.69,41.81-1.04c6.27-66.24,16.88-132.43,17.92-198.73c2.2-140.09,0.15-140.11,81.94-174.25
		c72.92,193.53,34.09,688.4-67.86,745.48c-10.05-103.32-19.71-202.56-29.37-301.81c-14.7,0.35-29.4,0.71-44.1,1.06
		c-7.15,74.68-14.31,149.37-21.46,224.05c-52.83-35.02-81.54-77.59-108.54-120.88c-109.89-176.18-214.93-354.56-330.38-528.19
		c-74.95-112.72-146.34-126.01-312.03-76.12c28.53,26.24,63.17,47.86,79.85,76.62c13.89,23.95,14.99,79.56,7.59,81.37
		c-90.21,22.04-182.61,43.97-275.51,47.68c-20.53,0.82-51.18-67.95-66.81-107.48c-41.24-104.32-76.79-210.18-114.6-315.42
		c-18.13-0.28-36.27-0.56-54.4-0.85c-116.88,326.12-233.76,652.25-350.65,978.37c15.85-134.92,39.27-268.74,80.61-398.64
		c73.02-229.47,37.54-490.47,313.46-690.24c-99.56,0-163.55,1.68-227.35-0.47c-65.6-2.2-139.51,6.31-194.52-15.85
		c-81.12-32.68-136.84-19.92-204.54,18.54c-37.01,21.02-91.66,33.85-136.03,30.33c-113.48-9.03-160.38,24.15-183.37,123.09
		c-45.76,196.88-100.41,392.34-150.91,586.55c-99.33,550.43-172.1-17.7-200.96-126.61c-30.32-114.42-61.12-229.09-81.49-344.89
		c-15.22-86.51-12.71-173.59,115.51-211.22c22.18-6.51,39.15-25.21,58.52-38.28c-2.67-7.05-5.35-14.1-8.02-21.16H726.88
		c45.25,27.81,62.44,41.55,82.76,50.36c131.12,56.81,202.24,150.13,227.09,266.75c5.75,26.96-11.88,67.84-36.34,86.43
		c-25.29,19.22-54.96,34.41-85.31,49.03c-26.3,16.09-52.79,31.88-79.49,47.29c-66.66,38.48-134.74,74.1-203.86,107.92
		c-57,27.89-116.66,56.14-163.75,99.58c-0.05,0.13-0.1,0.26-0.16,0.39c10.1,6.38,14.47,10.49,16.18,9.84
		c27.49-10.44,44.7-14.18,77.72-25.65c17.33-7.51,37.42-15.03,49.53-19.72c28.43-11.01,32.44-14.43,53.66-23.39 M2147.94,1059.35
		c-83.27-315.33-166.54-630.66-252.69-956.93c73.44-12.02,142.77-31.03,212.9-33.29c156.84-5.07,256.62,86.52,231.78,213.65
		c-50.53,258.61-106.95,516.44-160.95,774.58C2168.63,1058.03,2158.28,1058.69,2147.94,1059.35z M2473.58,673.67
		c29.54-67.66,51.59-118.15,79.29-181.57C2633.61,632.84,2629.21,644.06,2473.58,673.67z M3121.8,614.81
		c-6.03,52.85-8.34,117.02-45.66,153.15c-34.19,33.1-111.73,35.48-173.19,52.22c-15.44-15.95-22.27-20.52-25.22-26.41
		c-79.98-159.87-26.75-226.75,182.99-223.69C3082.55,570.39,3123.39,600.93,3121.8,614.81z M4558.8,954.63
		c-21.51,77.98-79.77,138.91-190.46,155.14c-75.51,11.07-147.61,38.1-248.37,65.33c0-310.91-1.87-603.52,3.68-896.03
		c0.43-22.49,50.55-60.17,82.05-63.75c158.02-17.95,298.15,59.47,349.34,192.88C4624.46,589.09,4608.76,773.45,4558.8,954.63z
		 M6419.45,1190.96c-11.02,4.48-22.04,8.97-33.06,13.45c-44.1-44.75-95.98-85.82-130.12-135.29
		c-34.35-49.77-49.04-108.59-75.91-162.22c-49.2-98.2-104.54-194,34.77-278.17c25.93-15.67,29.44-55.26,47.42-81.9
		c17.85-26.44,40.9-50.48,61.67-75.57c27.85,29.26,74.39,56.3,79.94,88.23c14.61,84.11,13.49,170.31,14.8,255.72
		C6420.88,940.44,6419.45,1065.71,6419.45,1190.96z M7378.03,770.33c-20.87-1.91-50.64-33.26-53.74-53.37
		c-7.76-50.28-2.56-101.93-2.56-153.03c-2.37-0.13-4.74-0.26-7.12-0.39c6.99-64.33,8.35-129.67,24.72-192.31
		c4.36-16.7,69.13-42.07,81.56-34.76c101.51,59.73,191.73,126.77,194,244.56C7617.21,702.27,7523.68,783.63,7378.03,770.33z"/>
	<path d="M1353.72,304.89c82.46-42.69,164.92-85.38,247.38-128.07c10.01,13.74,20.02,27.49,30.03,41.23
		c-84.12,40.31-168.23,80.61-252.35,120.92C1370.43,327.61,1362.07,316.25,1353.72,304.89z"/>
	<path d="M409.75,764.91C273.17,825.43,136.58,885.95,0,946.46c7.43,10.65,14.86,21.29,22.28,31.94
		c134.63-65.51,269.26-131.02,403.89-196.53c-4.41-5.41-8.83-10.82-13.24-16.22C411.75,765.93,410.64,765.6,409.75,764.91z"/>
</g>
</svg>
