<?xml version="1.0" encoding="utf-8"?>
<!-- Generator: Adobe Illustrator 28.0.0, SVG Export Plug-In . SVG Version: 6.00 Build 0)  -->
<svg version="1.1" id="Capa_1" xmlns="http://www.w3.org/2000/svg" xmlns:xlink="http://www.w3.org/1999/xlink" x="0px" y="0px"
	 viewBox="0 0 871.17 900" style="enable-background:new 0 0 871.17 900;" xml:space="preserve">
<style type="text/css">
	.st0{fill:#FFFFFF;}
</style>
<g>
	<path d="M151.48,616.25c-13.55-5.13-27.01-9.44-39.82-15.21c-43-19.38-77.99-47.59-97.67-91.79C3.58,485.84-2.74,461,1.17,435.7
		c7.99-51.71,34.12-92.63,78.88-120.82c21.61-13.61,45.12-22.61,71.02-27.76c-1.12-4.99-1.69-9.77-3.26-14.18
		c-10.4-29.23-11.48-59.28-4.01-88.82C167.39,90.91,246.8,44.47,335.89,64.37c40.64,9.08,73.43,31.04,104.08,62.38
		c5.86-6.67,11.02-13.82,17.42-19.61c35.23-31.9,75.77-51.1,124.36-48.78c52.07,2.49,92.08,27.13,120.41,69.95
		c30.3,45.79,34.81,95.57,18.47,147.57c-0.76,2.43-1.55,4.86-2.3,7.3c-0.08,0.26-0.04,0.57-0.12,2.17
		c7.03,2.29,14.46,4.57,21.81,7.11c50.78,17.53,92.18,46.58,115.84,96.41c11.32,23.82,18.1,49.37,14.21,75.69
		c-7.48,50.73-31.87,91.67-75.49,120.15c-20.75,13.55-43.33,22.64-67.68,27.02c-6.7,1.21-8.25,3.26-6.44,10.06
		c10.59,39.86,11.23,79.56-2.88,118.93c-25.63,71.53-93.41,112.31-168.64,101.52c-42.8-6.14-78-26.83-109.03-55.8
		c-3.12-2.91-6.17-5.9-9.29-8.8c-0.37-0.35-1.04-0.39,0.04-0.02c-16.69,12.84-31.59,26.81-48.74,37.01
		c-47.49,28.25-97.9,35.26-150.06,13.64c-37.77-15.65-63.21-43.61-79.62-81.07c-15.48-35.35-16.1-71.14-8.07-107.87
		c0.87-4,2.8-7.75,4.06-11.68C149.44,623.91,150.4,620.08,151.48,616.25z M433.28,758.62c70.75,64.4,148.94,63.99,200.42,33.26
		c58.1-34.68,88.49-102.17,70.1-185.97c13.54-5.57,27.52-10.41,40.69-16.89c64.8-31.9,100.01-105.09,82.98-174.99
		c-12-49.23-42.91-83.61-89.31-103.92c-11.37-4.98-23.06-9.22-34.59-13.8c21.5-81.18-12.05-144.48-64.02-178.76
		c-52.7-34.76-137.77-40.34-204.18,25.2c-5.51-4.83-10.9-9.84-16.6-14.49c-38.45-31.42-82.53-44.97-131.42-36.15
		c-81.04,14.63-132.44,83.29-126.01,165.69c0.99,12.63,2.61,25.22,3.9,37.5C92,317.64,42.84,363.2,39.24,441.78
		c-3.96,86.62,47.55,136.34,125.3,163.32c-18.25,79.95,4.29,144.7,77.6,184.17C311.38,826.54,376.05,811.76,433.28,758.62z"/>
	<path d="M395.28,814.7c13.51,20.26,26.36,39.54,38.72,58.08c11.76-18.1,24.08-37.05,36.82-56.66c4.37,2.59,9.68,5.25,14.32,8.8
		c1.32,1.01,1.74,5.28,0.73,6.9c-5.84,9.35-11.81,18.69-18.54,27.41c-11.01,14.24-22.65,28-33.06,40.78
		c-18.49-22.44-38.6-46.83-59.31-71.95C382.26,823.25,388.74,819,395.28,814.7z"/>
	<path d="M39.3,672.21c12.14-26.77,25.03-55.2,38.07-83.95c7.03,5.03,13.18,9.42,18.87,13.49c-10.08,19.01-20.17,38.06-30,56.59
		c20.1,2.36,41.76,4.91,63.71,7.5c0,6.8,0,14.09,0,23.25C99.3,683.38,68.69,677.68,39.3,672.21z"/>
	<path d="M803.52,661.57c-8.94-18.69-18.15-37.96-27.67-57.88c5.29-3.55,11.49-7.71,18.98-12.73
		c11.63,29.07,23.09,57.73,34.85,87.14c-3.19,0-7.35-0.47-11.37,0.08c-22.73,3.11-45.42,6.49-68.13,9.71
		c-2.79,0.4-5.86,1.13-8.4,0.36c-1.91-0.58-4.39-3.23-4.5-5.09c-0.35-5.54,0.34-11.15,0.61-16.54
		C760.13,664.92,782.27,663.21,803.52,661.57z"/>
	<path d="M132.7,212.81c0,8.43,0,15.17,0,21.89c-22.04,1.91-43.57,3.78-64.23,5.57c8.63,18.12,17.87,37.53,27.45,57.64
		c-5.28,3.59-11.5,7.8-19.05,12.93c-11.6-29.11-23.05-57.83-34.02-85.35C71.52,221.45,101.67,217.19,132.7,212.81z"/>
	<path d="M435.6,0c11.51,29.48,39.15,47.31,55.34,74.63c-5.84,4.24-11.69,8.5-17.16,12.47c-13.3-20.24-26.32-40.06-38.63-58.8
		c-11.26,18.32-23.33,37.95-35.71,58.1c-2.11-1.24-4.99-2.86-7.81-4.6c-12.43-7.69-12.73-8.06-4.03-20.49
		c5.36-7.67,11.78-14.58,17.56-21.97C415.25,26.45,425.2,13.45,435.6,0z"/>
	<path d="M828.19,227.02c-11.43,28-22.58,55.3-34,83.26c-8.46-4.3-15.43-7.85-22.21-11.3c11.51-19.94,22.78-39.46,33.58-58.15
		c-23.07-1.68-47.08-3.42-71.73-5.21c0.75-7.6,1.47-14.8,2.21-22.29C768.4,212.26,797.07,232.8,828.19,227.02z"/>
	<path d="M91.57,645.34c6.02-11.65,11.11-21.72,16.41-31.68c2.27-4.28,5.36-5.44,10.46-3.54c8.17,3.05,16.77,4.98,25.72,7.54
		c-3.29,9.42-6.38,18.72-9.89,27.86c-0.61,1.58-3.11,3.6-4.59,3.49C117.26,648.06,104.88,646.68,91.57,645.34z"/>
	<path d="M725.84,617.65c10.49-2.41,20.07-4.97,29.81-6.59c2.15-0.36,6.02,1.96,7.1,4.07c5.02,9.75,9.34,19.87,14.63,31.41
		c-12.72,0.99-24.37,2.27-36.03,2.49c-2.57,0.05-6.57-3.1-7.59-5.69C730.59,635.24,728.53,626.7,725.84,617.65z"/>
	<path d="M144.3,283.92c-9.5,2.33-18.46,4.88-27.58,6.53c-2.24,0.4-6.29-1.46-7.33-3.42c-5.34-10.17-9.97-20.71-15.21-31.91
		c12.11-1.14,22.77-2.25,33.45-3.09c5.16-0.41,8.13,1.72,9.35,7.36C138.72,267.37,141.61,275.12,144.3,283.92z"/>
	<path d="M429.15,783.7c8.04,6.65,15.06,12.8,22.46,18.43c3.74,2.84,4.35,5.28,1.62,9.08c-6.1,8.47-12,17.1-19.12,27.31
		c-6.88-9.89-13.72-19.26-20.02-28.98c-3.16-4.88-1.96-9.36,2.79-13.31C421.2,792.64,424.81,788.2,429.15,783.7z"/>
	<path d="M438.13,117.99c-6.88-6.04-14.09-12-20.74-18.51c-1.47-1.44-2.17-5.54-1.19-7.25c3.33-5.83,7.46-11.23,11.51-16.62
		c2.52-3.35,5.43-6.41,7.94-9.32c5.46,6.75,11.53,13.52,16.75,20.88c6.64,9.36,6.04,12.21-2.15,20c-3.7,3.52-7.37,7.08-11.08,10.6
		C439.01,117.93,438.66,117.89,438.13,117.99z"/>
	<path d="M771.89,259.08c-4.96,10.25-8.98,19.27-13.75,27.87c-1.07,1.93-5.09,3.84-7.16,3.34c-9.02-2.17-17.83-5.24-27.43-8.2
		c1.87-7.66,3.29-15.39,5.85-22.72c0.7-2,4.91-4.11,7.37-3.95C747.99,256.16,759.16,257.68,771.89,259.08z"/>
	<path d="M409.07,93.26c-4.35-1.14-5.63-4.52-2.72-9.63c3.36-5.9,6.47-11.95,10.15-17.65c6.23-9.65,12.82-19.06,19.3-28.63
		c9.83,14.84,20.18,30.27,30.33,45.84c3.91,6,2.6,10.52-3.44,12.36c-9.38-13.13-18.47-25.85-27.39-38.33
		C426.88,68.79,418.16,80.78,409.07,93.26z"/>
	<path d="M434.13,844.84c9.19-12.38,17.59-23.69,26.25-35.37c4.47,0.79,5.84,3.59,3.03,8.17c-3.7,6.03-7.43,12.05-11.36,17.93
		c-6.12,9.17-12.41,18.22-18.73,27.46c-9.68-14.09-19.66-28.91-29.97-43.5c-5-7.07-2.77-11.21,3.31-13.61
		C415.76,818.82,424.65,831.41,434.13,844.84z"/>
	<path d="M731.66,249.45c-0.98-5.79,2.76-7.98,8.4-7.77c8.22,0.3,16.45,0.72,24.63,1.56c9.94,1.02,19.84,2.51,29.09,3.72
		c-7.08,13.78-14.72,28.87-22.61,43.84c-2.2,4.18-5.09,8.12-9.88,3.05c6.16-13.01,12.18-25.75,18.49-39.09
		C763.61,252.97,748.02,251.25,731.66,249.45z"/>
	<path d="M107.28,606.98c-6.89,13.85-13.41,26.97-20.08,40.38c14.89,2.2,29.67,4.37,44.44,6.55c0.41,0.56,0.81,1.13,1.22,1.69
		c-2.27,1.35-4.56,3.89-6.79,3.83c-9.02-0.23-18.04-1.1-27.03-2.06c-8.83-0.94-17.62-2.27-25.39-3.29
		c7.59-13.82,15.96-29.32,24.63-44.64C100.27,605.93,103.19,602.53,107.28,606.98z"/>
	<path d="M105.77,295.25c-2.09-1.28-4.92-2.08-6.13-3.93c-3.68-5.67-7.11-11.58-9.96-17.7c-4.36-9.37-8.17-19-11.99-27.99
		c8.96-1.06,18.86-2.25,28.77-3.41c9.42-1.11,19.01-3.45,27.55,1.94c-0.01,1.02-0.02,2.04-0.03,3.06
		c-7.37,0.69-14.76,1.29-22.12,2.09c-7.56,0.81-15.1,1.8-23.18,2.78c6.1,13.59,12.19,27.16,18.28,40.73
		C106.57,293.62,106.17,294.44,105.77,295.25z"/>
	<path d="M765.99,606.7c2.1,1.24,4.96,1.98,6.17,3.81c3.73,5.66,7.24,11.56,10.09,17.7c4.48,9.65,8.35,19.58,12.86,30.28
		c-18.71,0-38.06,0.02-57.41-0.13c-0.4,0-0.78-1.89-1.43-3.55c15.6-1.66,30.68-3.26,46.77-4.98c-6.04-13.63-12.05-27.18-18.06-40.74
		C765.32,608.3,765.66,607.5,765.99,606.7z"/>
	<path d="M766.31,212.02c-25.17-2.27-36.26-13.07-35.28-38.88C743.05,186.39,753.91,198.35,766.31,212.02z"/>
	<path d="M42.43,335.28c5.39-14.77,10.78-29.54,16.31-44.69C72.22,304.48,66.56,321.13,42.43,335.28z"/>
	<path d="M829.01,564.49c-6.04,16.53-11.49,31.43-17.12,46.82C797.3,599.12,807.79,577.78,829.01,564.49z"/>
	<path d="M42.93,564.05c22.48,11.79,28.48,27.18,16.88,45.54C53.99,593.92,48.66,579.53,42.93,564.05z"/>
	<path d="M528.48,57.56c-26.48,12.39-36.73,10.48-46.01-8.38C498.57,52.11,513.52,54.83,528.48,57.56z"/>
	<path d="M386.18,851.37c-16.25-2.97-31.59-5.78-48.92-8.95C367.38,830.34,376.47,832.01,386.18,851.37z"/>
	<path d="M136.29,725.76c-10.39-12.41-19.54-23.33-29.16-34.82C128.51,688.95,137.32,699.27,136.29,725.76z"/>
	<path d="M827.3,335.61c-22.73-11.81-27.91-25.47-16.18-43.6C816.63,306.86,821.69,320.5,827.3,335.61z"/>
	<path d="M340.04,57.35c16.41-2.86,31.4-5.48,47.06-8.21C381.74,69.52,363.32,67.78,340.04,57.35z"/>
	<path d="M526.34,844.89c-15.8,2.54-29.14,4.69-42.9,6.91C488.48,833.07,500.13,830.99,526.34,844.89z"/>
	<path d="M762.11,695.95c-10.51,11.54-20.15,22.13-30.73,33.74C730.09,707.89,743.25,693.07,762.11,695.95z"/>
	<path d="M109.33,205.28c9.76-11.42,18.83-22.04,28.7-33.6C138.28,191.13,127.76,210.16,109.33,205.28z"/>
	<path d="M698.34,601.68c14.16,78.53,0.65,147.58-73.74,188.04c-70.94,38.58-134.65,14.4-191.51-35.76
		c-61.99,54.96-130.57,71.23-202.84,24c-63.8-41.69-76.93-105.09-60.62-176.73C85.99,575.72,35.2,523.26,44.53,431.97
		C52.06,358.4,100.59,317,171.65,298.87c-0.63-4.01-1.12-8.09-1.93-12.11c-11.12-55.66-0.78-106.16,39.49-147.46
		c35.51-36.42,79.88-49.73,130.29-42.41c35.35,5.13,64.79,21.98,90.64,45.88c1.65,1.53,3.34,3.02,5,4.51
		c65.61-63.95,144.9-61.21,198.61-28.29c60.16,36.87,82.19,96.45,66.09,180.03c77.38,23.44,127.79,71.56,126.12,156.19
		C824.35,536.51,773.13,580.49,698.34,601.68z M421.01,382.5c8.76,3.94,2.47,11.33,3.72,16.98c0.95,4.28,0.93,9.65,6.61,8.32
		c2.37-0.56,4.51-6.04,5.06-9.55c0.95-5.98,0.56-12.17,0.73-18.28c0.98-0.45,1.97-0.9,2.95-1.35c-3.51-1.88-7.67-5.91-10.38-5.1
		c-3.42,1.03-5.67,5.99-8.42,9.26c-4.52-0.44-9.04-0.87-13.57-1.31C416.03,389.34,419.79,389.13,421.01,382.5z M484.71,405.8
		c-1.79-4.43-3.02-9.2-5.51-13.19c-2.88-4.63-6.77-12.02-10.4-12.13c-9.49-0.29-19.09,2.65-28.59,4.58
		c-0.84,0.17-1.28,2.34-1.5,2.77c8.41-1.41,16.69-2.8,25.96-4.36c-1,4.17-1.55,6.45-2.54,10.54c4.02-2.45,6.48-3.95,9.76-5.96
		c3.17,7.56,6.18,14.72,9.17,21.85c0.8-0.29,1.54-0.32,1.76-0.67c0.76-1.19,1.34-2.5,1.98-3.77c0.18,9.21-5.27,12.39-13.51,13.65
		c-2.02,0.31-4.27,3.97-4.93,6.48c-0.38,1.44,1.94,4.88,3.55,5.26c2.61,0.62,6.05,0.2,8.42-1.09c5.63-3.08,10.84-6.92,16.22-10.46
		c0.71,0.74,1.42,1.48,2.14,2.21c1.01-4.23,2.03-8.45,3.23-13.48C494.14,407.16,489.44,406.44,484.71,405.8z M501.76,468.57
		c-0.28-0.27-0.56-0.54-0.84-0.81c1.86-2.83,3.64-5.7,5.58-8.47c8.27-11.81-0.24-31.38-16.16-34.41
		c5.45,7.25,10.36,13.78,15.44,20.54c-3.28,0.95-5.51,1.59-9.33,2.69c3.71,2.2,5.89,3.5,8.65,5.14c-3.1,4.01-5.48,7.95-8.68,11.03
		c-5.1,4.91-9.84,11.93-18.32,3.59c-1.81-1.78-7.35,0.21-11.17,0.46c0.48,3.15,0.63,6.41,1.61,9.39c0.37,1.12,2.62,1.87,4.15,2.31
		c5.75,1.65,7.78,6.03,6.77,11.11c-1.18,5.91-3.7,11.56-5.77,17.7c-3.54-2.07-5.99-3.5-9.82-5.74c0.78,4.65,1.28,7.56,1.74,10.3
		c-1.95,1.1-3.62,2.05-7.01,3.96c9.51,2.29,16.36,3.09,19.74-6.67c0.5,4.89-0.54,10.28,1.5,11.96c7.15,5.9,15.29,12.61,25.18,10.06
		c13.44-3.47,26.36-8.93,41.37-14.2c-7.09-4.83-11.8-8.04-16.52-11.25c0.41-0.65,0.81-1.3,1.22-1.94
		c5.52,1.73,11.05,3.47,18.93,5.94c-2.22-13.12-2.87-25.14-6.54-36.15c-3.07-9.22-9.45-17.42-19.13-21.86
		c-5.43-2.49-9.87-3.44-13.34,3.37C508.78,461.01,504.9,464.6,501.76,468.57z M436.7,745.72c-1.27,7.28,15.36,20.9,40.97,33.39
		c61.07,29.79,134.48,13.49,183.72-40.95c29.42-32.54,41.96-87.59,32.13-111.09c-0.69,11-0.22,21.62-10.7,25.24
		c-8.83,3.05-18.5,4.91-28.5-0.66c2.22-2.06,3.68-3.77,5.46-5.01c9.81-6.83,12.84-16.98,13.43-28.07c0.11-2.12-1.79-5.79-3.45-6.24
		c-2.76-0.76-6.38-0.13-9.06,1.13c-2.07,0.97-3.28,3.8-4.85,5.83c-38.92,50.13-88.75,83.92-150.47,99.53
		c-13.47,3.41-27.4,4.96-40.97,8.04c-3.25,0.74-5.89,4.19-8.8,6.39c1.94,2.53,3.43,6.56,5.9,7.29c6.26,1.86,12.98,3.08,19.47,2.91
		c4.51-0.11,8.94-2.95,13.93-4.76c0.06,9.74-3.39,17.86-10.43,23.5c-4.06,3.25-10.65,6.69-15.01,5.61
		C456.29,764.57,446.09,755.79,436.7,745.72z M724.95,582.97c0.58,0.58,1.15,1.17,1.73,1.75c7.54-4.29,15.73-7.75,22.51-13.02
		c48.46-37.65,67.19-87.82,57.88-147.56c-8.94-57.42-43.14-95.45-97.09-116.12c-14.2-5.44-20.09-3.14-27.74,11.52
		c3.83-1.66,6.78-4.55,10.14-6.83c2.7-1.82,6.44-4.67,8.79-3.97c7.82,2.34,15.57,5.46,22.69,9.44c10.47,5.84,13.63,12.51,11.54,22.3
		c-2.38,11.15-8.68,19.13-20.27,23.92c0-4.65,0.12-8.04-0.02-11.43c-0.45-10.32-5.32-17.94-14.83-21.97
		c-2.99-1.26-6.73-0.75-10.12-1.05c0.31,3.12-0.14,6.56,1.04,9.3c31.93,74.25,31.78,148.34-0.63,222.4
		c-1.09,2.49-1.82,7.51-0.82,8.1c2.63,1.53,6.64,2.35,9.51,1.5c8.59-2.55,15.01-8.13,17.61-17.01c1.38-4.7,1.89-9.65,2.9-15.06
		c8.67,5.35,13.8,12.42,16.29,21.59C738.95,571.32,730.28,576.33,724.95,582.97z M151.93,537.72c0.38,12.3,1.96,22.56,10.66,30.66
		c3.78,3.52,6.78,5.98,12.32,2.02c5.42-3.88,2.55-7.09,0.94-10.82c-22.51-52.41-29.42-106.74-17.39-162.57
		c4.45-20.66,12.73-40.54,19.8-60.58c1.71-4.84,1.96-8.89-2.63-10.72c-2.38-0.95-6.61,0.79-9.11,2.58c-2.9,2.08-5.53,5.2-7,8.45
		c-3.46,7.63-6.17,15.61-9.23,23.6c-1.48-0.78-3.34-1.52-4.92-2.64c-14.53-10.33-15.63-31.32-1.68-38.51
		c7.78-4,16.18-6.94,24.57-9.49c2.31-0.7,6.09,1.09,8.27,2.87c3.03,2.47,5.18,6.01,8.51,10.05c1.44-12.85-8.66-21.85-18.5-18.43
		c-27.48,9.55-50.6,25.29-69.47,47.61c-42.71,50.51-49.53,124-15.73,177.97c19.81,31.63,48.89,51.56,83.38,64.39
		c7.63,2.84,19.61-2.75,22.24-10.74c0.23-0.7-0.79-1.8-1.97-4.27c-10.92,18.64-23.74,9.37-36.31,4.16c-1.04-0.43-2.18-0.63-3.2-1.09
		c-12.5-5.61-16.64-17.26-9.03-28.56C140.53,547.62,146.71,542.99,151.93,537.72z M447.88,172.04c-2.36-5.16-4.46-8.33-5.18-11.79
		c-0.53-2.56-0.28-6.72,1.35-8.06c7.66-6.26,15.48-12.59,24.08-17.38c9.66-5.39,17.07-3.55,24.74,4.14
		c7.02,7.03,8.35,15.34,5.5,25.07c-3.42-1.78-6.08-3.47-8.95-4.61c-9.89-3.94-19.53-3.76-28.18,3.02c-1.96,1.54-2.91,4.38-4.32,6.62
		c2.47,1.37,4.83,3.69,7.42,3.97c29.63,3.26,58.09,11.11,85.17,23.15c45.08,20.03,82.43,50.03,111.45,90.11
		c1.58,2.18,3.47,4.13,5.33,6.32c10.62-12.87,7.69-21.1-13.72-41.18c15.06-8.04,33.66-5.37,40.18,6.51
		c5.77,10.53,1.35,21.58,0.13,32.49c-1.47,13.09-15.33,5.93-20.15,13.12c7.15,4.31,21.77-1.19,23.28-8.86
		c3.92-19.99,4.83-40.02,0.35-60.05c-13.08-58.54-48.28-98.44-104.47-118.01c-55.52-19.33-105.79-6.52-150.09,31.25
		C434.68,153.96,437.01,166.2,447.88,172.04z M170.68,634.23c-0.18,2.89-0.84,5.84-0.45,8.65c1.82,13.18,2.59,26.69,6.14,39.41
		c29.61,106.16,165.76,143.86,250.21,71.57c5.6-4.79,3.78-20.44-3.87-26.08c-0.24,10.23,8.49,21.34-5.25,28.77
		c-9.36,5.06-16.9,14.17-28.87,12.46c-12.09-1.72-22.25-20.85-18.96-35.4c10.99,11.05,23.22,15.35,37.81,7.6
		c5.97-3.17,8.7-7.03,4.17-13.22c-52.87-6.57-86.84-17.41-124.01-39.93c-32.78-19.86-60.4-45.34-82.69-76.58
		c-1.6-2.24-4.51-3.54-6.81-5.28c-1.42,2.8-3.79,5.5-4.1,8.41c-1.39,12.86,4.52,22.44,14.8,29.64c2.41,1.69,5,3.13,8.04,5.02
		C196.29,659.97,178.16,653.56,170.68,634.23z M406.46,132.98c-2.44-1.88-3.77-3.2-5.34-4.08
		c-58.06-32.28-133.76-23.01-182.24,22.98c-40.61,38.53-53.56,86.17-44.08,140.57c1.42,8.14,14.39,11.86,22.5,6.23
		c-1.1-0.61-1.93-1.4-2.86-1.54c-15.91-2.48-16.51-3.07-18.08-19.14c-0.28-2.83-0.41-5.67-0.55-8.51
		c-0.41-8.32,0.57-16.42,8.81-20.67c9.35-4.83,18.85-3.23,26.64,0.04c-4.72,8.95-10.01,16.92-13.02,25.67
		c-1.26,3.68,2.29,9.01,3.66,13.6c3.32-2.5,7.37-4.43,9.86-7.58c48.23-61.32,111.01-96.83,188.39-106.79
		c4.14-0.53,9.83,0.93,10.66-5.76c0.85-6.84-5.27-7.19-9.27-9.21c-2.18-1.1-4.98-1.79-7.37-1.51c-7.45,0.87-14.83,2.29-22.12,3.47
		C371.63,140.08,384.94,128.39,406.46,132.98z M550.85,376.08c3.26-1.83,6.01-3.45,8.84-4.93c3.34-1.74,7.51-2.61,9.99-5.16
		c6.11-6.29,12.17-12.85,16.97-20.13c19.49-29.58,16.49-56.05-7.86-81.63c-6.59-6.92-12.33-14.87-17.23-23.09
		c-2.7-4.53-5.4-5.05-9.98-5.33c-10.72-0.66-22.07-0.36-31.92-3.9c-25.52-9.15-57.52,3.05-70.84,33.24
		c-6.91,15.66-14.37,31.11-10.79,49.31c17.82,13.59,41.72,23.26,39.03,55.05c12.55-8.74,24.79-11.94,37.66-7.52
		C527.01,366.22,538.98,371.41,550.85,376.08z M384.08,368.61c0.32-1.57,0.8-2.89,0.82-4.22c0.23-15.28,6.52-27.24,19.31-35.77
		c3.78-2.52,7.32-5.39,11.08-7.93c12.52-8.48,17.82-22.8,14.21-37.72c-5.53-22.9-22.17-36.28-40.86-47.81
		c-11.4-7.03-23.75-7.93-36.98-6.06c-12.5,1.77-25.31,1.28-37.91,2.55c-2.71,0.27-5.75,3.36-7.5,5.93
		c-6.82,9.95-13.26,20.18-19.71,30.39c-4.32,6.85-9.99,13.37-12.32,20.88c-7.81,25.21-0.97,48.09,14.16,68.8
		c5.01,6.85,10.56,13.7,21.05,10.85c1.45-0.39,4.23,0.9,5.13,2.25c3.7,5.52,7.44,3.16,11.66,0.89c18.12-9.73,36.52-15.59,55.89-3.03
		C382.31,368.72,382.66,368.61,384.08,368.61z M387.37,529.44c-5.08,2.96-8.53,5.81-12.49,7.05c-5.24,1.65-11.37,3.93-16.23,2.63
		c-12.26-3.28-24.72-7.14-35.75-13.21c-8.34-4.59-15.33-2.8-21.68,0.62c-33.55,18.01-46.67,74.59-17.43,102.29
		c8.75,8.29,15.31,18.88,23.03,28.29c1.07,1.3,2.91,2.47,4.55,2.73c12.31,1.93,25.25,1.86,36.89,5.72
		c37.25,12.36,80.7-25.11,81.74-62.49c0.09-3.17-1.61-6.36-2.01-9.59c-1.07-8.63-8.64-10.95-14.26-15.27
		c-12.19-9.38-25.11-18.34-26.32-35.78C387.15,538.6,387.37,534.76,387.37,529.44z M437.66,585.3c0.32,3.34,0.69,5.49,0.71,7.64
		c0.04,7.11-1.45,14.56,0.19,21.25c3.93,16.02,14.06,28.58,26.96,38.37c12.55,9.53,26.43,17.61,42.94,16.37
		c16.31-1.23,32.5-4.06,46.99-5.96c8.01-10.76,15.26-21.49,23.53-31.38c11.77-14.08,18.08-29.46,16.46-48.14
		c-1.55-17.85-10.86-31.97-20.47-46c-3.64-5.32-7.4-11.89-16.12-8.8c-0.8,0.29-2.66-0.41-3.01-1.14c-3.68-7.79-8.87-3.5-13.61-1.74
		c-2.36,0.88-4.47,2.39-6.74,3.52c-16.18,8.05-32.38,14.69-49.22,1.36c-1.55-1.22-3.86-1.47-7.47-2.76
		C485.78,562.88,460.36,573.2,437.66,585.3z M554.93,512.04c4.33,2.1,9.35,2.88,10.68,5.52c3,5.95,7.94,6.87,13.22,7.63
		c5.05,0.72,10.22,0.63,15.3,1.21c34.22,3.89,61.12-14.17,71.73-46.95c3.26-10.06,9.57-19.11,14.05-28.82
		c1.19-2.58,1.86-6.33,0.89-8.82c-4.11-10.56-9.56-20.62-13.34-31.28c-5.51-15.56-16.2-25.79-30.72-32.42
		c-16.4-7.49-33.56-10.29-51.54-7.24c-18.97,3.21-27.56,12.21-29.78,31.09c-0.66,5.62-1.86,11.21-3.28,16.7
		c-2.18,8.4-5.76,15.85-13.89,20.46c-4.71,2.67-8.9,6.26-15.34,10.88C554.45,461.83,558.39,485.88,554.93,512.04z M185.42,448.56
		c4.72,12.98,9.02,25.41,13.8,37.65c2.04,5.22,4.27,10.72,7.8,14.95c18.76,22.45,61.35,32.13,87.73,19.8
		c7.44-3.47,13.45-9.1,15.07-18.18c1.6-8.94,3.89-17.76,5.94-26.61c2.9-12.55,11.85-20.03,24.88-26.29
		c-34.26-12.32-28.3-39.62-29.08-63.75c-4.3-2.38-7.58-5.63-11.11-8.58c-2.05-1.71-4.35-3.59-6.83-4.23
		c-5.48-1.41-11.11-2.54-16.73-2.97c-34.18-2.62-64.91,5.47-76.99,47.26C196.66,428.83,189.97,439.05,185.42,448.56z M315.87,389.09
		c2.81,15.52,4.74,29.47,8.02,43.11c2.25,9.35,11.05,12.9,19.21,15.13c7.53,2.06,8.95-6.32,12.98-10.2
		c1.02-0.98,1.65-2.42,2.77-3.22c5.37-3.86,5.05-8.65,3.23-14.29c-3.36-10.46-3.15-10.53,7.66-14.19
		c5.09-1.72,16.61-22.18,15.05-27.18c-0.44-1.39-2-2.54-3.24-3.57c-12.34-10.25-26.03-8.06-39.47-3.4
		c-7.34,2.54-14.07,6.84-21.69,10.65c5.54,4.91,9.17,8.13,12.8,11.35c-0.49,0.67-0.97,1.35-1.46,2.02
		C327.4,393.6,323.06,391.9,315.87,389.09z M428.53,320.87c-4.64,2.29-9.15,4.35-13.52,6.7c-16.1,8.67-26.57,21.07-25.67,40.42
		c0.12,2.6,1.93,7.15,3.42,7.35c12.87,1.72,26.91,7.76,36.49-7.3c0.23-0.36,0.98-0.39-0.26,0.06c6.9,3.53,12.39,7.8,18.51,9.07
		c5.84,1.21,12.36-0.48,18.52-1.36c1.82-0.26,4.88-2.05,4.89-3.17c0.09-7.82,1.72-16.63-1.27-23.26
		c-6.57-14.53-20.39-21.96-34.43-29.24c-0.74,6.38-1.36,11.75-1.98,17.11c-0.9,0.01-1.79,0.03-2.69,0.04
		C429.91,332.19,429.29,327.09,428.53,320.87z M505.62,407.52c-8.68,12.19-4.8,21.98,5.07,30.6c0.42,0.37,0.84,0.84,1.02,1.35
		c3,8.27,8.1,5.8,14.27,3.67c16.14-5.58,22.19-35.42,21.36-52.54c-6.36,1.84-12.86,3.72-19.35,5.6c-0.49-0.98-0.98-1.97-1.47-2.95
		c5.6-3.92,11.2-7.83,18.14-12.69c-12.13-4.69-23.61-9.35-35.26-13.56c-11.83-4.27-21.89-0.16-30.3,8.12
		c-1.76,1.73-2.48,6.12-1.65,8.59c3.99,11.78,9.41,22.48,24.65,21.85C502.82,405.54,503.55,406.34,505.62,407.52z M320.35,517.87
		c15.63,5.47,29.41,10.55,43.37,15.05c5.59,1.8,21.38-5.6,23.78-10.68c0.7-1.49,0.42-3.93-0.31-5.53
		c-5.15-11.23-9.7-23.31-25.47-22.74c-0.42,0.02-0.87-0.63-1.68-1.25c0.54-2.81,0.8-5.92,1.75-8.8c1.91-5.82,1.68-10.53-3.25-15.26
		c-4.21-4.03-6.98-9.54-10.59-14.24c-0.46-0.6-2.41-0.81-3.14-0.36c-6.6,4.14-16.35,7.05-18.95,13.03
		c-5.83,13.38-8.08,28.31-11.95,43.24c8.61-2.5,15.11-4.39,21.61-6.28c0.29,0.65,0.57,1.31,0.86,1.96
		C331.68,509.47,327.01,512.93,320.35,517.87z M432.89,532.76c-2.32-2.07-4.33-4.03-6.52-5.75c-2.86-2.24-5.88-6.09-8.8-6.07
		c-7.28,0.07-14.55,1.86-21.79,3.19c-0.73,0.13-1.74,1.79-1.69,2.69c0.41,8.08-1.42,17.49,2.11,23.94
		c7.1,13.02,20.33,20.42,32.85,28.11c1.43-6.96,2.63-12.86,3.84-18.75c0.94,0.09,1.88,0.18,2.83,0.28
		c0.61,5.47,1.23,10.94,2.03,18.1c8.12-5.87,15.28-11.79,23.15-16.56c12.98-7.87,13.95-20.45,14.2-33.39
		c0.03-1.69-1.98-4.78-3.28-4.91c-12-1.21-25.13-8.2-34.64,5.82C436.29,530.76,434.59,531.49,432.89,532.76z M402.96,459.2
		c-1.52,6.71,2.58,12.14,8.96,13.91c2.93,0.82,6.18,1.49,8.51,3.25c9.91,7.51,15.3,8.47,21.81,3.31
		c6.36-5.04,13.31-9.47,18.93-15.21c1.78-1.82,0.21-6.99,0.03-10.63c-0.09-1.9-0.93-3.86-0.66-5.68c1.83-12.32-0.71-18.33-10-20.59
		c-8.59-2.09-13.06-13.72-23.94-10.06c-1.33,0.45-2.65,1.03-3.84,1.76c-5.07,3.1-10.9,5.52-14.87,9.68
		c-3.35,3.51-5.64,8.92-6.35,13.79C400.79,448.05,402.39,453.7,402.96,459.2z M646.37,609.44c-12.46-5.63-23.73-10.73-35.04-15.85
		c-0.46,4.24-0.65,8.19-1.34,12.06c-3.11,17.64-13.87,31.13-24.34,44.85c-5.48,7.19-10.22,14.95-15.29,22.46
		c0.96,0.79,1.92,1.58,2.88,2.37C602.4,658.66,626.66,636.47,646.37,609.44z M255.29,306.43c0.54-5.67,0.71-11.92,1.8-18
		c2.72-15.32,11.02-27.57,21.9-38.35c6.71-6.65,12.52-13.93,14.48-23.66c-29.35,16.21-53.15,38.18-72.08,64.54
		C233.19,296.34,243.91,301.23,255.29,306.43z M678.66,551.98c10.89-18.61,22.74-72.8,19.09-95.36c-2.59,3.69-4.87,6.09-6.16,8.94
		c-3.85,8.53-7.7,17.1-10.83,25.91c-6.04,16.99-15.6,30.87-32.12,39.2c-0.8,0.4-1.26,1.46-1.13,1.3
		C657.98,538.7,668.03,545.16,678.66,551.98z M305.45,680.98c31.53,17.35,63.81,26.79,97.09,30.49
		c-2.13-11.81-4.11-22.74-5.73-31.73c-8.88,1.81-19.41,5.52-29.99,5.69c-10.59,0.18-21.22-3.39-31.88-4.9
		C325.7,679.23,316.35,675.9,305.45,680.98z M168.54,439.26c1.07,0.35,2.14,0.7,3.21,1.05c3.47-8.52,7.72-16.82,10.24-25.61
		c5.91-20.61,16.44-37.31,36.09-47.3c0.57-0.29,0.73-1.38,0.4-0.71c-9.65-7.33-18.9-14.34-28.55-21.67
		C176.66,374.51,169.9,406.27,168.54,439.26z M468.03,711.24c31.31-3.59,60.32-13.09,87.96-27.89c-2.76-1.77-5.4-2.67-7.93-2.41
		c-8.16,0.84-16.46,1.38-24.35,3.39c-12.46,3.18-24.64,3.54-36.95-0.12c-5.59-1.66-11.18-3.33-16.83-5.02
		C469.29,689.9,468.71,699.76,468.03,711.24z M646.4,291.86c-19.04-25.98-42.57-47.68-71.46-63.82c3.84,7.58,7.96,15.02,13.61,21.01
		c15.34,16.28,30.14,32.54,27.76,56.69C626.64,300.98,636.22,296.56,646.4,291.86z M218.6,531.95c-0.89-0.51-2.01-1.36-3.28-1.85
		c-17.4-6.7-27.06-19.69-31.33-37.48c-1.97-8.23-4.68-16.32-7.57-24.29c-1.34-3.71-3.9-6.99-5.91-10.47
		c-0.71,0.31-1.42,0.63-2.14,0.94c1.48,32.04,7.52,63.08,20.32,91.92C199.08,544.2,208.8,538.1,218.6,531.95z M316.79,212.54
		c0.28,1.32,0.56,2.63,0.84,3.95c11.4-1.28,23.01-1.61,34.14-4.08c14.55-3.23,27.58-0.9,40.13,6.46c2.3,1.35,4.73,2.48,7.08,3.7
		c1.73-11.8,3.3-22.54,5.04-34.45C372.99,191.87,344.07,199.36,316.79,212.54z M470.11,219.38c16.45-12.72,33.74-8.35,51.4-4.3
		c11.83,2.71,24.13,3.4,36.22,5c0.2-1.1,0.4-2.2,0.59-3.31c-29.39-14.05-59.75-24.88-92.92-28.05
		C466.99,199.07,468.43,208.43,470.11,219.38z M247.92,598.58c-8.6,3.31-17.04,6.56-25.43,9.8c6.8,15.87,52.67,58.12,69.14,62.51
		c-4.13-13.94-13.55-23.67-23.2-33.14C257.1,626.65,247.37,614.84,247.92,598.58z M697.69,436.05c-0.31-31.5-7.12-61.33-20.03-89.84
		c-8.67,7.05-16.44,13.38-25.08,20.41C681.25,381.39,683.57,412.26,697.69,436.05z M381.87,497.75c3.24-6.48,5.72-12.49,9.13-17.92
		c2.14-3.39,5.67-5.91,8.58-8.82c-0.74-1.32-1.48-2.65-2.21-3.97c-4.5,0.9-9.33,1.07-13.41,2.9c-5.28,2.36-9.98,6.04-14.92,9.15
		c-0.91-0.49-1.81-0.99-2.72-1.48c0.33,4.4-0.86,10.09,1.45,12.81c1.97,2.31,7.97,1.21,12.46,1.64
		C380.56,493.2,381.39,496.08,381.87,497.75z M371.36,430.36c0.63-2.29,1.26-4.58,1.85-6.72c8.82,1.51,14.09,12.61,25.78,6.88
		c-2.24-3.44-3.7-7.53-6.59-9.76c-5.77-4.45-12.33-7.88-19.76-12.47C362.64,410.38,362.64,410.38,371.36,430.36z M425.4,518.14
		c-0.98,0.52-1.95,1.05-2.93,1.57c2.58,2.16,4.86,5.21,7.83,6.21c2.44,0.82,6.29-0.02,8.43-1.59c1.87-1.37,3.74-6.38,3.02-7.06
		c-5.86-5.58-4.52-11.64-3.15-18.4c0.54-2.64-1.73-6.16-3.51-8.74c-0.5-0.72-4.78-0.23-5.59,0.93c-1.62,2.31-2.52,5.4-2.85,8.27
		C425.94,505.56,425.78,511.86,425.4,518.14z M606.64,557.17c2.22,15.04,12.58,22.26,24.95,27.11c11.75,4.61,19.43,3.8,25.83-2.57
		C635.74,582.18,621.52,569.16,606.64,557.17z M616.05,544.05c17.61,3.72,31.5,13.35,43.47,28
		C658.8,553.19,633.31,537,616.05,544.05z M212.94,579.84c18.62,8.44,44.01-5.65,43.41-23.09
		C246.39,572.4,231.03,576.93,212.94,579.84z M252.71,546.99c-19.91-9.26-41.04,1.66-46.2,23.1
		C218.9,556.39,231.87,546.22,252.71,546.99z M250.36,352.92c-12.03-6.36-23.73-12.53-36.03-19.03
		C221.7,349.56,236.98,357.57,250.36,352.92z M424.49,655.31c-11.36,16.56-10.2,37.69,0,45.44
		C424.49,686.84,424.49,671.8,424.49,655.31z M259.31,339.61c-1.06-13.54-18.02-25.46-31.69-21.58
		C238.2,325.23,248.48,332.23,259.31,339.61z M396.56,380.62c-8.91-0.63-17.76,15.23-14.56,27.16c3.41-7.17,6.41-13.5,9.76-20.55
		c1.41,3.48,2.27,5.63,3.14,7.77c1.09-0.91,2.19-1.83,3.28-2.74C397.66,388.57,397.15,384.89,396.56,380.62z M620.27,350.81
		c19.68,6.01,36.97-3.95,40.25-22.08C651.49,342.64,638.08,348.74,620.27,350.81z M409.2,133.24c-0.51,0.51-1.01,1.02-1.52,1.53
		c8.57,10.84,28.38,16.22,16.44,36.99c8.68-7.67,11.41-18.3,6.45-22.49C423.78,143.54,416.35,138.55,409.2,133.24z M424,199.67
		c-8.94,9.41-7.55,30.95,1.64,36.4C425.12,224.3,424.55,211.68,424,199.67z M172.19,631.48c1.51-7.53,3.11-15.04,4.5-22.59
		c2.02-11.01,13.8-4.84,19.34-11.46c-6.99-5.78-13.79-0.52-17.65,2.53C168.18,608.01,173.02,620.61,172.19,631.48z M692.96,623.58
		c1.18-0.26,2.36-0.52,3.54-0.78c-1.9-7.03-1.91-15.77-6.27-20.56c-3.57-3.93-12.32-3.15-18.78-4.46c-0.23,1.08-0.47,2.17-0.7,3.25
		c5.6,1.78,12.75,2.06,16.36,5.77C690.84,610.66,691.15,617.85,692.96,623.58z M443.84,698.67c9.13-13.87,8.19-32.14,0-39.78
		C443.84,671.1,443.84,683.85,443.84,698.67z M446.77,234.84c8.26-8.04,6.2-29.48-3.06-34.86
		C444.7,211.31,445.76,223.4,446.77,234.84z M681.95,579.22c-0.21,0.77-0.42,1.54-0.63,2.31c4.17,4.79,7.53,11.93,12.73,13.7
		c4.88,1.66,11.69-2.36,18.18-4.02c-1.22-1.92-1.32-2.26-1.51-2.33c-0.49-0.19-1.12-0.5-1.54-0.35c-8.98,3.2-16.47,2.82-20.86-7.43
		C687.76,579.8,684.15,579.81,681.95,579.22z M615.24,332.33c11.24-5.33,23.56-11.17,33.88-16.07
		C634.74,313.78,621.62,319.79,615.24,332.33z M367.83,450.96c-5.37-2.69-8.91-4.47-14.37-7.21c0,4.61,0,8.36,0,12.89
		C359.07,454.42,362.72,452.98,367.83,450.96z M421.03,516.35c-0.17-1.24-0.34-2.47-0.51-3.71c-5.98,1.1-11.97,2.2-17.95,3.3
		c0.16,0.98,0.31,1.97,0.47,2.95C409.04,518.05,415.03,517.2,421.03,516.35z"/>
	<path class="st0" d="M446.77,234.84c-1.01-11.44-2.07-23.54-3.06-34.86"/>
	<path class="st0" d="M421.29,382.79c0,0-0.28-0.29-0.28-0.29c-1.22,6.63-4.98,6.84-13.29-1.02"/>
	<path d="M501.76,468.57c0.19,4.28-0.42,8.8,0.76,12.78c2.03,6.81,1.81,11-6.81,11.25c-3.59,0.1-7.13,1.61-11.14,2.59
		c0-3,0-5.96,0-7c5,0.47,10.18,0.96,18.03,1.7c-3.27-7.17-5.28-11.57-7.32-16.06c1.47-1.58,3.55-3.83,5.64-6.07
		C501.2,468.03,501.48,468.3,501.76,468.57z"/>
</g>
</svg>
